<svg width="720" height="560" viewBox="0 0 720 560" fill="none" xmlns="http://www.w3.org/2000/svg">
  <rect width="720" height="560" rx="48" fill="#ECFDFB"/>
  <circle cx="540" cy="120" r="90" fill="#14B8A6" fill-opacity="0.18"/>
  <circle cx="120" cy="460" r="120" fill="#14B8A6" fill-opacity="0.12"/>
  <rect x="120" y="110" width="480" height="340" rx="36" fill="white" stroke="#E2E8F0"/>
  <rect x="160" y="150" width="200" height="24" rx="12" fill="#14B8A6" fill-opacity="0.15"/>
  <rect x="160" y="190" width="320" height="16" rx="8" fill="#E2E8F0"/>
  <rect x="160" y="220" width="280" height="16" rx="8" fill="#E2E8F0"/>
  <rect x="160" y="250" width="300" height="16" rx="8" fill="#E2E8F0"/>

  <g>
    <circle cx="360" cy="340" r="80" fill="#14B8A6" fill-opacity="0.12"/>
    <circle cx="320" cy="300" r="20" fill="#14B8A6"/>
    <circle cx="400" cy="300" r="20" fill="#14B8A6"/>
    <ellipse cx="360" cy="350" rx="46" ry="40" fill="#14B8A6"/>
    <circle cx="340" cy="340" r="6" fill="white"/>
    <circle cx="380" cy="340" r="6" fill="white"/>
    <path d="M350 362 C360 372 370 372 380 362" stroke="white" stroke-width="6" stroke-linecap="round"/>
  </g>

  <g>
    <circle cx="540" cy="330" r="26" fill="#F97316" fill-opacity="0.12"/>
    <path d="M540 310 C532 300 516 300 508 312 C500 324 505 340 540 362 C575 340 580 324 572 312 C564 300 548 300 540 310Z" fill="#F97316"/>
  </g>

  <g>
    <rect x="510" y="160" width="84" height="84" rx="24" fill="#0F172A"/>
    <rect x="546" y="178" width="12" height="48" rx="6" fill="white"/>
    <rect x="528" y="196" width="48" height="12" rx="6" fill="white"/>
  </g>
</svg>
